HIERARCHY
ROOT reference
{
  OFFSET 0 0 0
  CHANNELS 6 Xposition Yposition Zposition Zrotation Xrotation Yrotation
  JOINT Hips
  {
    OFFSET -7.89871 90.6651 5.62195
    CHANNELS 3 Zrotation Xrotation Yrotation
    JOINT RightUpLeg
    {
      OFFSET -9.21885 -1.56061 0.0844774
      CHANNELS 3 Zrotation Xrotation Yrotation
      JOINT RightLeg
      {
        OFFSET 0.0759573 -41.8717 0.118208
        CHANNELS 3 Zrotation Xrotation Yrotation
        JOINT RightFoot
        {
          OFFSET 1.34502 -38.9151 -0.448246
          CHANNELS 3 Zrotation Xrotation Yrotation
          End Site
          {
            OFFSET 0 -7.69 17.5
          }
        }
      }
    }
    JOINT LeftUpLeg
    {
      OFFSET 9.27267 -1.63951 -0.0842984
      CHANNELS 3 Zrotation Xrotation Yrotation
      JOINT LeftLeg
      {
        OFFSET 0.0869384 -41.8889 -0.0221301
        CHANNELS 3 Zrotation Xrotation Yrotation
        JOINT LeftFoot
        {
          OFFSET -2.13222 -44.1147 -0.152215
          CHANNELS 3 Zrotation Xrotation Yrotation
          End Site
          {
            OFFSET 0 -7.69 17.5
          }
        }
      }
    }
    JOINT Spine
    {
      OFFSET 0.024744 14.3094 0.053081
      CHANNELS 3 Zrotation Xrotation Yrotation
      JOINT Spine1
      {
        OFFSET -0.0513397 9.71791 -0.00182377
        CHANNELS 3 Zrotation Xrotation Yrotation
        JOINT Spine2
        {
          OFFSET -0.00312382 10.1145 -0.0367717
          CHANNELS 3 Zrotation Xrotation Yrotation
          JOINT Spine3
          {
            OFFSET 0.0163783 9.71865 -0.00479641
            CHANNELS 3 Zrotation Xrotation Yrotation
            JOINT Neck
            {
              OFFSET -0.0517516 10.3796 0.0153939
              CHANNELS 3 Zrotation Xrotation Yrotation
              JOINT Head
              {
                OFFSET -0.0385264 9.46348 0.0684403
                CHANNELS 3 Zrotation Xrotation Yrotation
                End Site
                {
                  OFFSET 0 15.95 0
                }
              }
            }
            JOINT RightShoulder
            {
              OFFSET -3.13939 6.93498 -0.0552089
              CHANNELS 3 Zrotation Xrotation Yrotation
              JOINT RightArm
              {
                OFFSET -12.7016 -0.00451177 0.0159222
                CHANNELS 3 Zrotation Xrotation Yrotation
                JOINT RightForeArm
                {
                  OFFSET -26.5368 -0.0539853 0.0798031
                  CHANNELS 3 Zrotation Xrotation Yrotation
                  JOINT RightHand
                  {
                    OFFSET -25.9611 -0.0442561 0.0250852
                    CHANNELS 3 Zrotation Xrotation Yrotation
                    JOINT RightHandThumb1
                    {
                      OFFSET -2.48905 0.190105 3.12053
                      CHANNELS 3 Zrotation Xrotation Yrotation
                      JOINT RightHandThumb2
                      {
                        OFFSET -3.68274 0 0
                        CHANNELS 3 Zrotation Xrotation Yrotation
                        JOINT RightHandThumb3
                        {
                          OFFSET -2.55832 0 0
                          CHANNELS 3 Zrotation Xrotation Yrotation
                          End Site
                          {
                            OFFSET -2.194 0 0
                          }
                        }
                      }
                    }
                    JOINT RightInHandIndex
                    {
                      OFFSET -3.22368 0.508421 1.97842
                      CHANNELS 3 Zrotation Xrotation Yrotation
                      JOINT RightHandIndex1
                      {
                        OFFSET -5.21684 -0.091368 0.999158
                        CHANNELS 3 Zrotation Xrotation Yrotation
                        JOINT RightHandIndex2
                        {
                          OFFSET -3.61937 0 0
                          CHANNELS 3 Zrotation Xrotation Yrotation
                          JOINT RightHandIndex3
                          {
                            OFFSET -2.0521 0 0
                            CHANNELS 3 Zrotation Xrotation Yrotation
                            End Site
                            {
                              OFFSET -1.805 0 0
                            }
                          }
                        }
                      }
                    }
                    JOINT RightInHandMiddle
                    {
                      OFFSET -3.38211 0.517263 0.756737
                      CHANNELS 3 Zrotation Xrotation Yrotation
                      JOINT RightHandMiddle1
                      {
                        OFFSET -5.17411 -0.084 0.313895
                        CHANNELS 3 Zrotation Xrotation Yrotation
                        JOINT RightHandMiddle2
                        {
                          OFFSET -3.94947 0 0
                          CHANNELS 3 Zrotation Xrotation Yrotation
                          JOINT RightHandMiddle3
                          {
                            OFFSET -2.47579 0 0
                            CHANNELS 3 Zrotation Xrotation Yrotation
                            End Site
                            {
                              OFFSET -1.975 0 0
                            }
                          }
                        }
                      }
                    }
                    JOINT RightInHandRing
                    {
                      OFFSET -3.36516 0.537895 -0.128947
                      CHANNELS 3 Zrotation Xrotation Yrotation
                      JOINT RightHandRing1
                      {
                        OFFSET -4.63474 -0.022105 -0.478947
                        CHANNELS 3 Zrotation Xrotation Yrotation
                        JOINT RightHandRing2
                        {
                          OFFSET -3.44238 0 0
                          CHANNELS 3 Zrotation Xrotation Yrotation
                          JOINT RightHandRing3
                          {
                            OFFSET -2.3881 0 0
                            CHANNELS 3 Zrotation Xrotation Yrotation
                            End Site
                            {
                              OFFSET -1.857 0 0
                            }
                          }
                        }
                      }
                    }
                    JOINT RightInHandPinky
                    {
                      OFFSET -3.16105 0.469368 -1.20179
                      CHANNELS 3 Zrotation Xrotation Yrotation
                      JOINT RightHandPinky1
                      {
                        OFFSET -4.14105 -0.022105 -1.09053
                        CHANNELS 3 Zrotation Xrotation Yrotation
                        JOINT RightHandPinky2
                        {
                          OFFSET -2.75653 0 0
                          CHANNELS 3 Zrotation Xrotation Yrotation
                          JOINT RightHandPinky3
                          {
                            OFFSET -1.74189 0 0
                            CHANNELS 3 Zrotation Xrotation Yrotation
                            End Site
                            {
                              OFFSET -1.645 0 0
                            }
                          }
                        }
                      }
                    }
                  }
                }
              }
            }
            JOINT LeftShoulder
            {
              OFFSET 3.22035 6.91275 -0.0103841
              CHANNELS 3 Zrotation Xrotation Yrotation
              JOINT LeftArm
              {
                OFFSET 12.8423 -0.00770811 0.00920525
                CHANNELS 3 Zrotation Xrotation Yrotation
                JOINT LeftForeArm
                {
                  OFFSET 26.4606 0.0104107 0.0699304
                  CHANNELS 3 Zrotation Xrotation Yrotation
                  JOINT LeftHand
                  {
                    OFFSET 25.9013 -0.12909 -0.0638686
                    CHANNELS 3 Zrotation Xrotation Yrotation
                    JOINT LeftHandThumb1
                    {
                      OFFSET 2.48905 0.190105 3.12053
                      CHANNELS 3 Zrotation Xrotation Yrotation
                      JOINT LeftHandThumb2
                      {
                        OFFSET 3.68274 0 0
                        CHANNELS 3 Zrotation Xrotation Yrotation
                        JOINT LeftHandThumb3
                        {
                          OFFSET 2.55832 0 0
                          CHANNELS 3 Zrotation Xrotation Yrotation
                          End Site
                          {
                            OFFSET 2.194 0 0
                          }
                        }
                      }
                    }
                    JOINT LeftInHandIndex
                    {
                      OFFSET 3.22368 0.508421 1.97842
                      CHANNELS 3 Zrotation Xrotation Yrotation
                      JOINT LeftHandIndex1
                      {
                        OFFSET 5.21684 -0.091368 0.999158
                        CHANNELS 3 Zrotation Xrotation Yrotation
                        JOINT LeftHandIndex2
                        {
                          OFFSET 3.61937 0 0
                          CHANNELS 3 Zrotation Xrotation Yrotation
                          JOINT LeftHandIndex3
                          {
                            OFFSET 2.0521 0 0
                            CHANNELS 3 Zrotation Xrotation Yrotation
                            End Site
                            {
                              OFFSET 1.805 0 0
                            }
                          }
                        }
                      }
                    }
                    JOINT LeftInHandMiddle
                    {
                      OFFSET 3.38211 0.517263 0.756737
                      CHANNELS 3 Zrotation Xrotation Yrotation
                      JOINT LeftHandMiddle1
                      {
                        OFFSET 5.17411 -0.084 0.313895
                        CHANNELS 3 Zrotation Xrotation Yrotation
                        JOINT LeftHandMiddle2
                        {
                          OFFSET 3.94947 0 0
                          CHANNELS 3 Zrotation Xrotation Yrotation
                          JOINT LeftHandMiddle3
                          {
                            OFFSET 2.47579 0 0
                            CHANNELS 3 Zrotation Xrotation Yrotation
                            End Site
                            {
                              OFFSET 1.975 0 0
                            }
                          }
                        }
                      }
                    }
                    JOINT LeftInHandRing
                    {
                      OFFSET 3.36516 0.537895 -0.128947
                      CHANNELS 3 Zrotation Xrotation Yrotation
                      JOINT LeftHandRing1
                      {
                        OFFSET 4.63474 -0.022105 -0.478947
                        CHANNELS 3 Zrotation Xrotation Yrotation
                        JOINT LeftHandRing2
                        {
                          OFFSET 3.44238 0 0
                          CHANNELS 3 Zrotation Xrotation Yrotation
                          JOINT LeftHandRing3
                          {
                            OFFSET 2.3881 0 0
                            CHANNELS 3 Zrotation Xrotation Yrotation
                            End Site
                            {
                              OFFSET 1.857 0 0
                            }
                          }
                        }
                      }
                    }
                    JOINT LeftInHandPinky
                    {
                      OFFSET 3.16105 0.469368 -1.20179
                      CHANNELS 3 Zrotation Xrotation Yrotation
                      JOINT LeftHandPinky1
                      {
                        OFFSET 4.14105 -0.022105 -1.09053
                        CHANNELS 3 Zrotation Xrotation Yrotation
                        JOINT LeftHandPinky2
                        {
                          OFFSET 2.75653 0 0
                          CHANNELS 3 Zrotation Xrotation Yrotation
                          JOINT LeftHandPinky3
                          {
                            OFFSET 1.74189 0 0
                            CHANNELS 3 Zrotation Xrotation Yrotation
                            End Site
                            {
                              OFFSET 1.645 0 0
                            }
                          }
                        }
                      }
                    }
                  }
                }
              }
            }
          }
        }
      }
    }
  }
}
MOTION
Frames:	6
Frame Time:	0.00416667
0 0 0 0 0 -0 21.9678 -22.0192 -117.062 -16.8405 -46.1867 -3.92077 -6.27115 10.5133 30.5737 13.3898 -0.487013 64.8696 9.25066 -29.6658 33.7427 -4.74915 -2.42462 -25.8333 -12.8477 6.06232 -10.4131 -1.74384 22.4583 12.7278 0.0123254 4.63288 3.26196 0.0302503 6.71481 5.36324 -0.657522 -0.245647 -0.998421 -0.659769 -0.265866 -1.00529 -13.2883 -6.37249 -18.0369 -3.89896 -4.32901 26.9706 42.6076 8.92208 53.1766 -66.8179 -84.07 -69.8926 12.8168 -3.9184 -7.95988 28.184 10.7294 19.1592 5.89842e-15 -3.18055e-15 -10 5.40525e-15 3.18055e-15 -10 -3.18055e-15 6.36111e-15 -0 19.9818 0.871897 2.3964 24 3.40419e-15 6.36111e-15 20 3.18055e-15 -6.36111e-15 -3.18055e-15 6.36111e-15 -0 20 3.18055e-15 -0 24 3.08116e-15 -3.18055e-15 20 0 -1.90833e-14 -3.18055e-15 6.36111e-15 -0 19.9748 -1.02565 -2.81938 24 -3.97569e-16 -3.18055e-15 20 3.18055e-15 -3.18055e-15 -3.18055e-15 6.36111e-15 -0 19.7815 -3.00948 -8.30515 24 -7.95139e-16 2.22639e-14 20 6.36111e-15 9.54166e-15 -29.3061 -8.12358 -11.0897 -6.46303 51.251 -97.1475 4.80431 -29.6989 5.16858 -19.801 -76.6845 -30.4456 -28.184 10.7294 -19.1592 -4.35126e-15 6.36111e-15 10 -1.29185e-14 0 10 -0 -3.18055e-15 -0 -19.9818 0.871897 -2.3964 -24 0 -0 -20 4.77083e-15 3.18055e-15 -0 -3.18055e-15 -0 -20 3.18055e-15 -3.18055e-15 -24 -1.59028e-15 -0 -20 -2.38542e-15 6.36111e-15 -0 -3.18055e-15 -0 -19.9748 -1.02565 2.81938 -24 4.77083e-15 -0 -20 -7.95139e-16 -0 -0 -3.18055e-15 -0 -19.7815 -3.00948 8.30515 -24 -6.36111e-15 3.18055e-15 -20 7.95139e-16 -6.36111e-15 
0 0 0 0 0 -0 21.9412 -22.0244 -117.119 -16.7668 -46.1808 -3.86424 -6.3107 10.5092 30.6495 13.389 -0.514233 64.8445 9.2735 -29.6558 33.7715 -4.74009 -2.39882 -25.8163 -12.8514 6.04585 -10.4032 -1.7608 22.4713 12.7505 0.0102568 4.63281 3.26639 0.0256261 6.71476 5.36978 -0.65855 -0.245074 -0.998679 -0.660807 -0.265286 -1.00553 -13.2971 -6.36387 -18.0328 -3.88818 -4.38528 26.9091 42.8577 8.8586 53.1973 -67.1324 -84.1207 -70.1035 12.8454 -3.87392 -7.92347 28.184 10.7294 19.1592 -3.22962e-15 0 -10 -6.95241e-15 6.36111e-15 -10 -0 0 3.18055e-15 19.9818 0.871897 2.3964 24 -7.96381e-15 -6.36111e-15 20 -7.95139e-15 -1.90833e-14 -0 0 3.18055e-15 20 -3.18055e-15 9.54166e-15 24 5.06901e-15 -1.59028e-14 20 -1.59028e-15 -1.27222e-14 -0 0 3.18055e-15 19.9748 -1.02565 -2.81938 24 1.59028e-15 -1.59028e-14 20 -1.59028e-15 -1.27222e-14 -0 0 3.18055e-15 19.7815 -3.00948 -8.30515 24 -4.77083e-15 -2.54444e-14 20 1.59028e-15 -1.27222e-14 -29.2813 -8.13173 -11.1236 -6.46526 51.2619 -97.1649 4.81619 -29.4996 5.2817 -20.0509 -76.6629 -30.5896 -28.184 10.7294 -19.1592 5.3376e-15 6.36111e-15 10 -6.17883e-15 -1.59028e-15 10 -3.18055e-15 -3.18055e-15 3.97569e-16 -19.9818 0.871897 -2.3964 -24 4.77083e-15 3.18055e-15 -20 3.18055e-15 9.54166e-15 -3.18055e-15 -3.18055e-15 3.97569e-16 -20 3.18055e-15 -0 -24 -1.59028e-15 -0 -20 -3.18055e-15 -3.18055e-15 -3.18055e-15 -3.18055e-15 3.97569e-16 -19.9748 -1.02565 2.81938 -24 -1.59028e-15 3.18055e-15 -20 -3.18055e-15 -0 -3.18055e-15 -3.18055e-15 3.97569e-16 -19.7815 -3.00948 8.30515 -24 -3.18055e-15 9.54166e-15 -20 4.77083e-15 3.18055e-15 
0 0 0 0 0 -0 21.9138 -22.029 -117.176 -16.695 -46.1736 -3.81398 -6.35027 10.5038 30.7272 13.3901 -0.539858 64.8217 9.30448 -29.6549 33.7863 -4.74291 -2.37302 -25.7621 -12.8498 6.05336 -10.4077 -1.7892 22.4911 12.7866 0.00464864 4.63254 3.27331 0.0177029 6.71513 5.38006 -0.659388 -0.2444 -0.998934 -0.661653 -0.264598 -1.00576 -13.293 -6.36784 -18.0347 -3.86299 -4.45415 26.8306 43.1029 8.80549 53.2182 -67.4386 -84.169 -70.3043 12.8714 -3.83355 -7.88885 28.184 10.7294 19.1592 3.51003e-15 1.59028e-15 -10 -6.73965e-15 -1.59028e-15 -10 3.18055e-15 3.18055e-15 -3.18055e-15 19.9818 0.871897 2.3964 24 8.02593e-15 6.36111e-15 20 3.18055e-15 -0 3.18055e-15 3.18055e-15 -3.18055e-15 20 -4.77083e-15 6.36111e-15 24 -5.26779e-15 1.90833e-14 20 7.95139e-15 3.18055e-15 3.18055e-15 3.18055e-15 -3.18055e-15 19.9748 -1.02565 -2.81938 24 1.19271e-15 1.59028e-14 20 4.77083e-15 6.36111e-15 3.18055e-15 3.18055e-15 -3.18055e-15 19.7815 -3.00948 -8.30515 24 3.18055e-15 6.36111e-15 20 6.36111e-15 6.36111e-15 -29.2426 -8.14454 -11.1763 -6.50085 51.2777 -97.1444 4.81985 -29.2442 5.37498 -20.2923 -76.6739 -30.7273 -28.184 10.7294 -19.1592 -6.45924e-15 0 10 1.06752e-14 1.27222e-14 10 -6.62086e-32 -3.18055e-15 -1.19271e-15 -19.9818 0.871897 -2.3964 -24 -6.36111e-15 -0 -20 1.59028e-15 1.27222e-14 -6.62086e-32 -3.18055e-15 -1.19271e-15 -20 0 9.54166e-15 -24 -3.18055e-15 6.36111e-15 -20 -1.59028e-15 1.27222e-14 -6.62086e-32 -3.18055e-15 -1.19271e-15 -19.9748 -1.02565 2.81938 -24 -1.59028e-15 6.36111e-15 -20 -3.18055e-15 1.59028e-14 -6.62086e-32 -3.18055e-15 -1.19271e-15 -19.7815 -3.00948 8.30515 -24 1.59028e-15 6.36111e-15 -20 3.18055e-15 1.90833e-14 
0 0 0 0 0 -0 21.8815 -22.0382 -117.238 -16.6273 -46.1686 -3.76155 -6.38736 10.4994 30.8037 13.39 -0.560909 64.7992 9.32477 -29.644 33.8138 -4.7538 -2.36065 -25.7124 -12.843 6.07035 -10.4198 -1.82698 22.5165 12.832 -0.00219665 4.63204 3.28184 0.00680794 6.71789 5.39267 -0.659161 -0.243567 -0.99966 -0.661424 -0.263748 -1.00649 -13.2858 -6.376 -18.0462 -3.82925 -4.52966 26.74 43.3377 8.75917 53.237 -67.7224 -84.2175 -70.4869 12.8944 -3.7959 -7.85652 28.184 10.7294 19.1592 6.95241e-15 -6.36111e-15 -10 4.93175e-16 -6.36111e-15 -10 -9.54166e-15 3.18055e-15 9.54166e-15 19.9818 0.871897 2.3964 24 7.30534e-15 6.36111e-15 20 -1.59028e-15 2.22639e-14 -9.54166e-15 3.18055e-15 9.54166e-15 20 7.95139e-15 1.59028e-14 24 7.35503e-15 -6.36111e-15 20 3.18055e-15 -0 -9.54166e-15 3.18055e-15 9.54166e-15 19.9748 -1.02565 -2.81938 24 -3.97569e-16 1.90833e-14 20 7.95139e-15 1.59028e-14 -9.54166e-15 3.18055e-15 9.54166e-15 19.7815 -3.00948 -8.30515 24 2.38542e-15 6.36111e-15 20 3.18055e-15 1.27222e-14 -29.2004 -8.15937 -11.2428 -6.47309 51.2981 -97.1988 4.85579 -29.0389 5.52074 -20.5565 -76.6601 -30.8845 -28.184 10.7294 -19.1592 -3.79044e-15 3.18055e-15 10 -1.05301e-14 4.77083e-15 10 0 3.18055e-15 -0 -19.9818 0.871897 -2.3964 -24 3.18055e-15 -0 -20 7.95139e-16 -0 0 3.18055e-15 -0 -20 6.36111e-15 7.95139e-15 -24 7.95139e-15 6.36111e-15 -20 -7.95139e-16 -6.36111e-15 0 3.18055e-15 -0 -19.9748 -1.02565 2.81938 -24 4.77083e-15 9.54166e-15 -20 -1.59028e-15 -0 0 3.18055e-15 -0 -19.7815 -3.00948 8.30515 -24 -7.95139e-15 6.36111e-15 -20 7.95139e-16 3.18055e-15 
0 0 0 0 0 -0 21.8466 -22.0488 -117.303 -16.5608 -46.1639 -3.70879 -6.42464 10.4951 30.8796 13.3907 -0.579712 64.7792 9.35012 -29.6393 33.8281 -4.74569 -2.32575 -25.668 -12.8473 6.05962 -10.4121 -1.8528 22.5331 12.8596 -0.00697187 4.6313 3.28663 -0.000895677 6.72005 5.39958 -0.65929 -0.242518 -0.999195 -0.661554 -0.262682 -1.00602 -13.2903 -6.37086 -18.0388 -3.80938 -4.58927 26.6667 43.5645 8.7216 53.2531 -68.016 -84.2695 -70.6811 12.9154 -3.76044 -7.82708 28.184 10.7294 19.1592 -8.41226e-16 -4.77083e-15 -10 -7.73584e-16 4.77083e-15 -10 3.18055e-15 -3.18055e-15 9.54166e-15 19.9818 0.871897 2.3964 24 4.96962e-16 -6.36111e-15 20 3.18055e-15 -1.59028e-14 3.18055e-15 -3.18055e-15 9.54166e-15 20 -4.77083e-15 -3.18055e-15 24 -1.39149e-15 3.18055e-15 20 -6.36111e-15 3.18055e-15 3.18055e-15 -3.18055e-15 9.54166e-15 19.9748 -1.02565 -2.81938 24 0 3.18055e-15 20 3.18055e-15 6.36111e-15 3.18055e-15 -3.18055e-15 9.54166e-15 19.7815 -3.00948 -8.30515 24 -5.1684e-15 -6.36111e-15 20 1.59028e-15 3.18055e-15 -29.1705 -8.16925 -11.287 -6.43394 51.3237 -97.2657 4.89953 -28.8357 5.67597 -20.8259 -76.6425 -31.0491 -28.184 10.7294 -19.1592 -1.08105e-14 6.36111e-15 10 7.02006e-15 -3.18055e-15 10 4.77083e-15 -3.18055e-15 3.97569e-16 -19.9818 0.871897 -2.3964 -24 -1.59028e-15 1.27222e-14 -20 1.59028e-15 6.36111e-15 4.77083e-15 -3.18055e-15 3.97569e-16 -20 3.18055e-15 1.59028e-14 -24 -4.77083e-15 1.59028e-14 -20 -3.18055e-15 6.36111e-15 4.77083e-15 -3.18055e-15 3.97569e-16 -19.9748 -1.02565 2.81938 -24 0 9.54166e-15 -20 -7.95139e-16 -3.18055e-15 4.77083e-15 -3.18055e-15 3.97569e-16 -19.7815 -3.00948 8.30515 -24 -4.77083e-15 1.59028e-14 -20 3.18055e-15 6.36111e-15 
0 0 0 0 0 -0 21.8125 -22.0557 -117.368 -16.4894 -46.1564 -3.65651 -6.46741 10.4892 30.9552 13.3959 -0.600353 64.7653 9.41179 -29.676 33.7729 -4.64375 -2.17782 -25.6531 -12.9059 5.91441 -10.3069 -1.80975 22.5022 12.7952 0.000606243 4.6259 3.27306 0.0110134 6.71302 5.37877 -0.663593 -0.239799 -0.99376 -0.665897 -0.259896 -1.00056 -13.3518 -6.3023 -17.9387 -3.86429 -4.57072 26.6903 43.7849 8.69579 53.2648 -68.3821 -84.3319 -70.9467 12.936 -3.72533 -7.80236 28.184 10.7294 19.1592 4.07085e-15 4.77083e-15 -10 8.41226e-16 4.77083e-15 -10 -3.18055e-15 3.18055e-15 -3.18055e-15 19.9818 0.871897 2.3964 24 5.01931e-15 3.18055e-15 20 -1.59028e-15 -1.90833e-14 -3.18055e-15 3.18055e-15 -3.18055e-15 20 1.59028e-15 3.18055e-15 24 -1.78906e-15 -3.18055e-15 20 0 -1.90833e-14 -3.18055e-15 3.18055e-15 -3.18055e-15 19.9748 -1.02565 -2.81938 24 -1.98785e-15 -1.27222e-14 20 4.77083e-15 -1.59028e-14 -3.18055e-15 3.18055e-15 -3.18055e-15 19.7815 -3.00948 -8.30515 24 1.98785e-15 -1.59028e-14 20 0 -2.8625e-14 -29.2005 -8.15471 -11.2111 -6.45207 51.3563 -97.2609 4.91764 -28.5784 5.78052 -21.0779 -76.6415 -31.2062 -28.184 10.7294 -19.1592 -2.10798e-15 -6.36111e-15 10 -5.3376e-15 -6.36111e-15 10 1.59028e-15 3.18055e-15 -7.95139e-16 -19.9818 0.871897 -2.3964 -24 0 -6.36111e-15 -20 2.38542e-15 -9.54166e-15 1.59028e-15 3.18055e-15 -7.95139e-16 -20 6.36111e-15 -1.59028e-15 -24 3.18055e-15 -0 -20 2.38542e-15 -9.54166e-15 1.59028e-15 3.18055e-15 -7.95139e-16 -19.9748 -1.02565 2.81938 -24 0 -9.54166e-15 -20 3.97569e-15 -9.54166e-15 1.59028e-15 3.18055e-15 -7.95139e-16 -19.7815 -3.00948 8.30515 -24 -4.77083e-15 -4.77083e-15 -20 7.95139e-16 -1.59028e-14 
